<?xml version="1.0" encoding="utf-8"?>
<!-- Generator: Adobe Illustrator 16.0.0, SVG Export Plug-In . SVG Version: 6.00 Build 0)  -->
<!DOCTYPE svg PUBLIC "-//W3C//DTD SVG 1.1//EN" "http://www.w3.org/Graphics/SVG/1.1/DTD/svg11.dtd">
<svg version="1.1" id="Layer_1" xmlns="http://www.w3.org/2000/svg" xmlns:xlink="http://www.w3.org/1999/xlink" x="0px" y="0px"
	 width="16px" height="16px" viewBox="8 8 16 16" enable-background="new 8 8 16 16" xml:space="preserve">
<g>
	<path fill="#E02F2F" d="M23.832,12.59c0,0-0.156-1.177-0.635-1.695c-0.609-0.679-1.291-0.683-1.604-0.721
		C19.355,10,15.999,10,15.999,10h-0.007c0,0-3.357,0-5.596,0.174c-0.313,0.038-0.993,0.042-1.603,0.721
		c-0.479,0.518-0.636,1.695-0.636,1.695s-0.16,1.38-0.16,2.761v1.294c0,1.382,0.16,2.762,0.16,2.762s0.156,1.176,0.636,1.692
		c0.609,0.68,1.408,0.659,1.764,0.729C11.836,21.959,15.995,22,15.995,22s3.36-0.006,5.599-0.178
		c0.313-0.04,0.994-0.044,1.604-0.723c0.479-0.518,0.635-1.693,0.635-1.693s0.16-1.38,0.16-2.762v-1.293
		C23.992,13.97,23.832,12.59,23.832,12.59z"/>
	<polygon fill="#FFFFFF" points="13.998,13 13.998,19 18.998,16 	"/>
</g>
</svg>
