<?xml version="1.0" encoding="utf-8"?>
<!-- Generator: Adobe Illustrator 16.0.0, SVG Export Plug-In . SVG Version: 6.00 Build 0)  -->
<!DOCTYPE svg PUBLIC "-//W3C//DTD SVG 1.1//EN" "http://www.w3.org/Graphics/SVG/1.1/DTD/svg11.dtd">
<svg version="1.1" id="Layer_1" xmlns="http://www.w3.org/2000/svg" xmlns:xlink="http://www.w3.org/1999/xlink" x="0px" y="0px"
	 width="16px" height="16px" viewBox="4 4 16 16" enable-background="new 4 4 16 16" xml:space="preserve">
<path d="M19.984,14.667C19.991,14.626,20,14.585,20,14.544V9.451c0-0.042-0.009-0.082-0.016-0.123
	c-0.003-0.013-0.002-0.026-0.005-0.04c-0.02-0.083-0.056-0.159-0.101-0.23c-0.005-0.007-0.006-0.017-0.011-0.024
	c-0.006-0.008-0.014-0.012-0.02-0.02c-0.051-0.066-0.107-0.127-0.18-0.173l-0.01-0.007l0,0l-7.262-4.722
	c-0.024-0.015-0.05-0.022-0.075-0.035c-0.024-0.012-0.046-0.023-0.071-0.032c-0.164-0.061-0.34-0.061-0.503,0
	c-0.024,0.009-0.047,0.021-0.07,0.032c-0.024,0.013-0.051,0.02-0.074,0.035L4.331,8.841C4.26,8.887,4.203,8.947,4.153,9.013
	c-0.006,0.008-0.016,0.012-0.021,0.02C4.126,9.041,4.125,9.051,4.121,9.058c-0.046,0.071-0.081,0.147-0.1,0.229
	c-0.003,0.014-0.002,0.027-0.005,0.04C4.008,9.368,4,9.409,4,9.451v5.093c0,0.041,0.008,0.082,0.016,0.123
	c0.002,0.014,0.001,0.025,0.005,0.039c0.019,0.084,0.054,0.16,0.1,0.23c0.005,0.008,0.006,0.016,0.011,0.024
	c0.005,0.008,0.015,0.012,0.021,0.02c0.051,0.066,0.107,0.126,0.179,0.173l7.273,4.729c0.023,0.016,0.05,0.023,0.075,0.035
	c0.023,0.013,0.045,0.022,0.069,0.032C11.83,19.979,11.915,20,12,20s0.17-0.021,0.251-0.051c0.024-0.01,0.047-0.02,0.069-0.032
	c0.025-0.012,0.052-0.021,0.076-0.035l7.272-4.729c0.073-0.048,0.133-0.109,0.184-0.178c0.004-0.006,0.011-0.01,0.016-0.015
	c0.005-0.009,0.006-0.016,0.01-0.024c0.046-0.07,0.082-0.146,0.102-0.23C19.982,14.692,19.981,14.681,19.984,14.667z M5.455,10.848
	l1.642,1.149l-1.642,1.148V10.848z M12,13.655l-2.369-1.658L12,10.339l2.367,1.658L12,13.655z M12.727,9.072v-3.01l5.246,3.411
	l-2.336,1.636L12.727,9.072z M11.272,9.072l-2.909,2.037L6.027,9.473l5.245-3.411V9.072z M8.363,12.885l2.909,2.038v3.009
	l-5.245-3.411L8.363,12.885z M12.727,14.923l2.91-2.038l2.335,1.636l-5.245,3.411V14.923z M16.905,11.997l1.64-1.149v2.298
	L16.905,11.997z"/>
</svg>
