<?xml version="1.0" encoding="utf-8"?>
<!-- Generator: Adobe Illustrator 16.0.0, SVG Export Plug-In . SVG Version: 6.00 Build 0)  -->
<!DOCTYPE svg PUBLIC "-//W3C//DTD SVG 1.1//EN" "http://www.w3.org/Graphics/SVG/1.1/DTD/svg11.dtd">
<svg version="1.1" id="Layer_1" xmlns="http://www.w3.org/2000/svg" xmlns:xlink="http://www.w3.org/1999/xlink" x="0px" y="0px"
	 width="16px" height="16px" viewBox="504 504 16 16" enable-background="new 504 504 16 16" xml:space="preserve">
<path d="M512,504.198c-4.418,0-8,3.582-8,8c0,3.535,2.292,6.533,5.471,7.591c0.4,0.073,0.546-0.174,0.546-0.385
	c0-0.19-0.007-0.821-0.011-1.489c-2.225,0.483-2.695-0.943-2.695-0.943c-0.364-0.924-0.888-1.17-0.888-1.17
	c-0.727-0.496,0.055-0.486,0.055-0.486c0.803,0.056,1.226,0.824,1.226,0.824c0.714,1.223,1.873,0.869,2.328,0.664
	c0.073-0.516,0.28-0.869,0.508-1.068c-1.776-0.202-3.644-0.889-3.644-3.954c0-0.874,0.312-1.587,0.823-2.147
	c-0.082-0.203-0.357-1.017,0.079-2.118c0,0,0.671-0.215,2.2,0.82c0.638-0.178,1.322-0.266,2.002-0.269
	c0.68,0.003,1.364,0.092,2.003,0.27c1.526-1.036,2.198-0.82,2.198-0.82c0.438,1.102,0.162,1.915,0.08,2.117
	c0.513,0.56,0.822,1.273,0.822,2.147c0,3.073-1.871,3.75-3.653,3.948c0.288,0.248,0.543,0.734,0.543,1.48
	c0,1.069-0.011,1.932-0.011,2.195c0,0.213,0.146,0.462,0.551,0.384c3.177-1.06,5.467-4.058,5.467-7.591
	C520,507.78,516.418,504.198,512,504.198z"/>
</svg>
