<?xml version="1.0" encoding="utf-8"?>
<!-- Generator: Adobe Illustrator 16.0.0, SVG Export Plug-In . SVG Version: 6.00 Build 0)  -->
<!DOCTYPE svg PUBLIC "-//W3C//DTD SVG 1.1//EN" "http://www.w3.org/Graphics/SVG/1.1/DTD/svg11.dtd">
<svg version="1.1" id="Layer_1" xmlns="http://www.w3.org/2000/svg" xmlns:xlink="http://www.w3.org/1999/xlink" x="0px" y="0px"
	 width="16px" height="16px" viewBox="208.5 208.5 16 16" enable-background="new 208.5 208.5 16 16" xml:space="preserve">
<g>
	<g>
		<g>
			<g>
				<path fill="#3CB878" d="M217.325,215.544c0,0.226-0.154,0.409-0.346,0.409c-0.19,0-0.345-0.183-0.345-0.409
					c0-0.225,0.154-0.408,0.345-0.408C217.171,215.135,217.325,215.319,217.325,215.544z"/>
			</g>
		</g>
	</g>
	<g>
		<g>
			<g>
				<ellipse fill="#007335" cx="212.111" cy="215.544" rx="0.345" ry="0.408"/>
			</g>
		</g>
	</g>
	<path fill="#3CB878" d="M218.274,215.94c0.611-0.515,1.165-0.907,1.497-0.97l0.744-0.745c-0.266-0.335-0.577-0.634-0.926-0.9
		c-0.004-0.003-0.008-0.006-0.013-0.009c-0.309-0.234-0.646-0.441-1.007-0.621c0,0,0,0,0,0c0.369-1.876,1.578-3.343,1.624-3.398
		c0.001-0.001,0.001-0.002,0.001-0.002c-2.815-0.333-4.005,1.792-4.35,2.593c-0.005,0-0.01-0.001-0.015-0.002
		c-0.436-0.057-0.879-0.085-1.323-0.085v6.917c0,0,0-0.001,0.001-0.001l0,0c0,0,0,0,0.001,0l0,0
		c0.229,0.001,0.441,0.064,0.629,0.167l0,0c0.002,0.002,0.004,0.002,0.005,0.004c0.019,0.01,0.038,0.021,0.057,0.033
		C215.441,218.663,216.985,217.027,218.274,215.94z M217.885,214.856c0,2.034-1.837,1.366-1.837,1.366
		C216.005,214.311,217.885,214.856,217.885,214.856z"/>
	<path fill="#007335" d="M213.17,211.889c-0.345-0.801-1.534-2.926-4.35-2.593c0,0,0,0,0.001,0.001
		c0.044,0.054,1.216,1.476,1.605,3.31l0,0c0.006,0.029,0.012,0.059,0.018,0.088c0,0,0,0,0,0.001
		c-0.365,0.182-0.707,0.393-1.019,0.63c-0.349,0.265-0.661,0.565-0.926,0.899l0.746,0.747c0.332,0.064,0.885,0.455,1.494,0.969
		c1.291,1.087,2.835,2.725,3.075,2.982c-0.125,0.078-0.237,0.175-0.33,0.288l0,0.001c0.107-0.131,0.24-0.241,0.39-0.324
		c0.001-0.001,0.003-0.002,0.004-0.002c0.188-0.104,0.4-0.168,0.628-0.168v-6.917C214.06,211.802,213.611,211.831,213.17,211.889z
		 M212.968,216.223c0,0-1.837,0.667-1.837-1.366C211.131,214.856,213.01,214.311,212.968,216.223z"/>
	<path fill="#F6F3CF" d="M215.201,218.921C215.2,218.921,215.2,218.921,215.201,218.921c0.125,0.078,0.237,0.176,0.33,0.289
		l-0.05,0.049l0,0.001c0,0,0.018-0.018,0.05-0.05C215.438,219.097,215.327,218.999,215.201,218.921z"/>
	<path fill="#3C3C3B" d="M215.2,218.921c-0.019-0.012-0.038-0.022-0.057-0.033c-0.002-0.001-0.004-0.002-0.006-0.003l0,0
		c-0.188-0.103-0.399-0.167-0.628-0.167l0,0c0,0-0.001,0-0.001,0c0,0,0,0,0,0h0c-0.229,0-0.441,0.064-0.628,0.168l0,0
		c-0.001,0-0.002,0.001-0.004,0.002c-0.02,0.012-0.04,0.023-0.059,0.035c-0.126,0.078-0.238,0.176-0.331,0.289l0.049,0.049
		l0.971,0.972v0.003l0.001-0.002l0.001,0.002v-0.003l0.973-0.974l0.05-0.049C215.438,219.097,215.326,218.999,215.2,218.921z"/>
	<path fill="none" d="M208.82,209.296c0,0,0,0,0.001,0.001C208.821,209.297,208.82,209.296,208.82,209.296z"/>
	<path fill="none" d="M210.445,212.697C210.445,212.696,210.445,212.696,210.445,212.697
		C210.445,212.696,210.445,212.696,210.445,212.697L210.445,212.697z"/>
	<polygon fill="none" points="218.57,212.696 218.57,212.696 218.57,212.696 	"/>
	<path fill="none" d="M210.427,212.607L210.427,212.607L210.427,212.607z"/>
	<path fill="none" d="M220.195,209.296c0,0-0.001,0-0.001,0.001C220.195,209.297,220.195,209.296,220.195,209.296z"/>
	<path fill="#3C3C3B" d="M218.57,212.696C218.57,212.696,218.57,212.696,218.57,212.696c0.36,0.18,0.698,0.387,1.007,0.621
		c0.005,0.003,0.009,0.006,0.013,0.009c0.338-0.758,0.586-2.19,0.605-4.03c0,0-0.001,0.001-0.001,0.002
		C220.148,209.352,218.939,210.819,218.57,212.696z"/>
	<path fill="#3C3C3B" d="M218.57,212.696c0.369-1.876,1.578-3.343,1.624-3.398C220.148,209.352,218.939,210.819,218.57,212.696z"/>
	<path fill="#3C3C3B" d="M210.445,212.696c-0.006-0.03-0.012-0.059-0.018-0.088l0,0c-0.389-1.834-1.561-3.256-1.605-3.31
		c-0.001-0.001-0.001-0.001-0.001-0.001c0.02,1.84,0.267,3.272,0.606,4.03C209.739,213.089,210.081,212.879,210.445,212.696
		C210.445,212.696,210.445,212.696,210.445,212.696z"/>
	<path fill="#3C3C3B" d="M208.822,209.298c0.044,0.054,1.216,1.476,1.605,3.31C210.038,210.773,208.866,209.351,208.822,209.298z"/>
	<path fill="#3C3C3B" d="M210.427,212.607c0.006,0.029,0.012,0.059,0.018,0.088C210.439,212.666,210.433,212.636,210.427,212.607z"
		/>
	<path fill="#007335" d="M214.508,220.233v0.002l-0.001-0.001l-0.001,0.001v-0.002l-0.971-0.972h0c0,0-1.697-1.696-2.998-2.997
		c-0.385,0.671-0.605,1.448-0.605,2.276c0,2.528,2.049,4.578,4.577,4.578l0,0V220.233L214.508,220.233z"/>
	<g>
		<g>
			<path fill="#F6F3CF" d="M221.381,217.585c-0.024-0.81,0.473-1.807,0.473-1.807c-0.567-0.026-1.137,0.187-1.624,0.458
				c0.79-1.672,3.183-2.909,3.183-2.909s2.709,2.62-0.424,5.589c0.294-1.283-0.142-2.382-0.142-2.382
				C222.364,217.323,221.381,217.585,221.381,217.585z"/>
		</g>
	</g>
	<path fill="#3CB878" d="M222.847,216.534c-0.482,0.789-1.466,1.051-1.466,1.051c-0.024-0.81,0.473-1.807,0.473-1.807
		c-0.567-0.026-1.137,0.187-1.624,0.458c-0.066,0.142-0.126,0.285-0.167,0.432c-0.194,0.69-0.528,1.373-0.979,1.937
		c-0.014,1.01-0.354,1.94-0.921,2.691c1.099-0.088,2.509-0.543,4.16-1.813c0.247-0.19,0.467-0.379,0.665-0.566
		C223.282,217.633,222.847,216.534,222.847,216.534z"/>
	<path fill="#3CB878" d="M218.479,216.263c-1.301,1.301-2.997,2.997-2.997,2.997l0-0.001l-0.973,0.974v2.886
		c1.494,0,2.819-0.716,3.655-1.822c0.566-0.751,0.907-1.682,0.921-2.691c0-0.021,0.001-0.043,0.001-0.064
		C219.085,217.711,218.864,216.934,218.479,216.263z"/>
	<path fill="#F6F3CF" d="M218.274,215.94c-1.29,1.086-2.833,2.723-3.074,2.981c0.126,0.078,0.238,0.176,0.331,0.289
		c0.141-0.142,0.566-0.566,1.099-1.1l3.141-3.14C219.439,215.033,218.886,215.425,218.274,215.94z"/>
	<path fill="#D5D2B1" d="M213.815,218.923c-0.24-0.257-1.785-1.895-3.075-2.982c-0.609-0.514-1.162-0.905-1.494-0.969l4.239,4.239
		C213.578,219.098,213.69,219.001,213.815,218.923z"/>
	<g>
		<path fill="#3C3C3B" d="M212.745,221.994c-0.833,0-1.509,0.676-1.509,1.509h3.018C214.254,222.67,213.578,221.994,212.745,221.994
			z"/>
		<path fill="#3C3C3B" d="M216.233,221.994c-0.833,0-1.509,0.676-1.509,1.509h3.018C217.741,222.67,217.066,221.994,216.233,221.994
			z"/>
	</g>
</g>
</svg>
