<?xml version="1.0" encoding="utf-8"?>
<!-- Generator: Adobe Illustrator 16.0.0, SVG Export Plug-In . SVG Version: 6.00 Build 0)  -->
<!DOCTYPE svg PUBLIC "-//W3C//DTD SVG 1.1//EN" "http://www.w3.org/Graphics/SVG/1.1/DTD/svg11.dtd">
<svg version="1.1" id="Layer_1" xmlns="http://www.w3.org/2000/svg" xmlns:xlink="http://www.w3.org/1999/xlink" x="0px" y="0px"
	 width="16px" height="16px" viewBox="242 117 16 16" enable-background="new 242 117 16 16" xml:space="preserve">
<g id="_x32_0-Search">
</g>
<g id="_x31_9-Web_Page">
</g>
<g id="_x31_8-Wifi">
</g>
<g id="_x31_7-Hotspot">
</g>
<g id="_x31_6-Satelite">
</g>
<g id="_x31_5-Receiver">
</g>
<g id="_x31_4-Receiver">
</g>
<g id="_x31_3-Receiver">
</g>
<path fill="#2175AA" d="M257.512,128.644h-1.302V125c0-0.27-0.219-0.488-0.488-0.488h-5.233v-1.828h2.355
	c0.271,0,0.488-0.219,0.488-0.488v-3.58c0-0.27-0.218-0.488-0.488-0.488h-5.688c-0.27,0-0.488,0.219-0.488,0.488v3.58
	c0,0.27,0.219,0.488,0.488,0.488h2.355v1.828h-5.233c-0.27,0-0.488,0.219-0.488,0.488v3.644h-1.302c-0.27,0-0.488,0.219-0.488,0.487
	v2.254c0,0.27,0.219,0.488,0.488,0.488h3.58c0.27,0,0.488-0.219,0.488-0.488v-2.254c0-0.269-0.219-0.487-0.488-0.487h-1.302v-3.155
	h4.745v3.155h-1.302c-0.27,0-0.488,0.219-0.488,0.487v2.254c0,0.27,0.219,0.488,0.488,0.488h3.58c0.27,0,0.488-0.219,0.488-0.488
	v-2.254c0-0.269-0.219-0.487-0.488-0.487h-1.302v-3.155h4.745v3.155h-1.302c-0.27,0-0.488,0.219-0.488,0.487v2.254
	c0,0.27,0.219,0.488,0.488,0.488h3.58c0.27,0,0.488-0.219,0.488-0.488v-2.254C258,128.862,257.781,128.644,257.512,128.644z
	 M247.645,119.104h4.711v2.604h-4.711V119.104z M245.58,130.896h-2.604v-1.277h2.604V130.896z M251.302,130.896h-2.604v-1.277h2.604
	V130.896z M257.023,130.896h-2.604v-1.277h2.604V130.896z"/>
<g id="_x31_1-Code">
</g>
<g id="_x31_0-Homegroup">
</g>
<g id="_x30_9-Sharing_Option">
</g>
<g id="_x30_8-Data">
</g>
<g id="_x30_7-Connectivity">
</g>
<g id="_x30_6-Computer">
</g>
<g id="_x30_5-Laptop">
</g>
<g id="_x30_4-Mobile">
</g>
<g id="_x30_3-Network">
</g>
<g id="_x30_2-Click">
</g>
<g id="_x30_1-Website">
</g>
</svg>
